<?xml version="1.0" encoding="UTF-8"?>
<svg id="Layer_1" data-name="Layer 1" xmlns="http://www.w3.org/2000/svg" viewBox="0 0 248.16 248.17">
  <defs>
    <style>
      .cls-1 {
        fill: rgba(137,137,137,0.1);
      }

      .cls-1, .cls-2 {
        stroke: #666;
        stroke-miterlimit: 10;
        stroke-width: 5px;
      }

      .cls-2, .cls-3 {
        fill: #666;
      }

      .cls-3 {
        stroke-width: 0px;
      }
    </style>
  </defs>
  <path class="cls-2" d="M124.07,1.14C56.18,1.14,1.14,56.18,1.14,124.08s55.04,122.94,122.93,122.94,122.94-55.04,122.94-122.94S191.97,1.14,124.07,1.14ZM123.31,193.4c-32.79,0-59.37-26.58-59.37-59.36s26.58-59.36,59.37-59.36,59.36,26.57,59.36,59.36-26.58,59.36-59.36,59.36Z"/>
  <path class="cls-1" d="M182.67,134.04c0,32.78-26.58,59.36-59.36,59.36s-59.37-26.58-59.37-59.36,26.58-59.36,59.37-59.36,59.36,26.57,59.36,59.36Z"/>
  <path class="cls-3" d="M213.31,124.08c0,52.71-42.74,95.45-95.45,95.45S22.39,176.79,22.39,124.08,65.13,28.63,117.86,28.63s95.45,42.72,95.45,95.45Z"/>
</svg>