<?xml version="1.0" encoding="UTF-8"?>
<svg id="Layer_1" data-name="Layer 1" xmlns="http://www.w3.org/2000/svg" viewBox="0 0 329.9 421.24">
  <defs>
    <style>
      .cls-1 {
        stroke: #666;
        stroke-miterlimit: 10;
        stroke-width: 5px;
      }

      .cls-1, .cls-2 {
        fill: #666;
      }

      .cls-2 {
        stroke-width: 0px;
      }
    </style>
  </defs>
  <path class="cls-1" d="M27.36,327.44l-20.68,63.57,60.51-33.7L327.61,46.33l.06-.56c2.92-27.72-22.96-49.7-49.85-42.34h0S27.36,327.44,27.36,327.44Z"/>
  <path class="cls-2" d="M3.74,403.05c9.94-4.85,20.92-7.56,31.98-7.9,2.71-.08,5.51-.13,8.21.19,2.31.27,3.83,1.33,5.14,3.21,1.4,2.01,2.62,4.1,4.27,5.93,1.5,1.67,3.26,3.12,5.13,4.36,7.69,5.1,17.57,6.29,26.52,4.74,10.99-1.91,20.85-7.77,30.08-13.74,10.29-6.67,20.56-13.96,32.67-16.87,3.13-.75,1.8-5.57-1.33-4.82-10.9,2.62-20.5,8.64-29.78,14.71s-18.47,12.28-29.18,15.08c-8.57,2.24-18.21,1.77-25.87-3.02-1.75-1.1-3.32-2.42-4.71-3.95-1.53-1.69-2.58-3.72-3.93-5.54-1.66-2.24-3.7-3.99-6.46-4.67s-5.57-.62-8.29-.62c-12.8,0-25.48,3.01-36.97,8.62-1.21.59-1.54,2.32-.9,3.42.72,1.24,2.2,1.49,3.42.9h0Z"/>
  <path class="cls-2" d="M52.61,383.83c2.16,3.83,4.32,7.66,6.48,11.49,1.88,3.33,3.56,7.25,7.16,9.06,6.22,3.12,13.76,1.1,19.59-1.93s11.07-7.48,16.85-10.82c6.72-3.88,14.34-5.08,21.62-7.49,7.24-2.4,14.69-6.52,18.01-13.75.56-1.23.35-2.69-.9-3.42-1.08-.63-2.85-.34-3.42.9-2.57,5.61-8.05,8.96-13.67,10.99-7.06,2.55-14.57,3.66-21.36,6.97-5.58,2.72-10.43,6.68-15.65,9.99-4.74,3-10.41,5.92-16.22,4.94-1.63-.27-3.17-.89-4.26-2.17-1.26-1.5-2.11-3.43-3.07-5.13l-6.84-12.14c-1.58-2.8-5.9-.29-4.32,2.52h0Z"/>
  <path class="cls-2" d="M11.27,410.39c4.47-.02,8.94-.04,13.42-.07,1.84,0,3.92-.28,5.72.16,1.28.32,1.98,1.23,2.63,2.32,1.62,2.69,2.82,5.73,5.76,7.29,3.11,1.65,7.13,1.56,10.02-.52,1.1-.79,1.62-2.18.9-3.42-.63-1.08-2.32-1.69-3.42-.9-2.09,1.5-4.9,1.29-6.52-.8-1.71-2.21-2.44-5-4.57-6.92-3.02-2.73-7.23-2.23-11.01-2.21-4.31.02-8.61.04-12.92.06-3.22.02-3.22,5.02,0,5h0Z"/>
</svg>