<?xml version="1.0" encoding="UTF-8"?>
<svg id="Layer_1" data-name="Layer 1" xmlns="http://www.w3.org/2000/svg" viewBox="0 0 251.64 316.69">
  <defs>
    <style>
      .cls-1, .cls-2 {
        fill: rgba(137,137,137,0.1);
      }

      .cls-1, .cls-3 {
        stroke-width: 0px;
      }

      .cls-2 {
        stroke: #666;
        stroke-miterlimit: 10;
      }

      .cls-3 {
        fill: #666;
      }
    </style>
  </defs>
  <path class="cls-2" d="M24.76,295.06c-11.46,5.09-24.41-3.39-24.25-15.93.22-17.29,2.92-40.98,14.17-58.98C29.62,196.23,147.94,52.57,180.51,11.81c10.12-12.66,28.44-15.04,41.45-5.37l17.03,12.64c13.93,10.34,16.25,30.28,5.08,43.55L80.11,255.63c-.31.36-.63.71-.96,1.04-3.74,3.72-26.98,26.2-54.39,38.39Z"/>
  <g>
    <path class="cls-1" d="M53.04,290.11c1.26,5.53,1.12,11.37-.41,16.84-2.71-4.5-2.73-10.49-.06-15.02,3.1,2.64,4.29,7.31,2.82,11.11"/>
    <path class="cls-3" d="M50.62,290.77c1.13,5.1.98,10.44-.41,15.51l4.57-.6c-.68-1.16-.94-1.76-1.29-3.08-.07-.26-.13-.52-.18-.78-.02-.09-.17-1.02-.12-.65-.07-.57-.1-1.15-.1-1.73s.03-1.16.09-1.73c-.04.37.09-.56.11-.65.05-.26.11-.52.18-.78.34-1.31.59-1.93,1.26-3.09l-3.93.51c.37.32.71.67,1.03,1.03s-.09-.19.2.26c.11.17.22.34.33.51.23.38.45.78.62,1.19-.17-.42.09.3.1.31.08.23.14.47.2.7s.1.48.16.72c.1.45,0-.09.03.18.04.45.06.89.04,1.34,0,.24-.03.49-.05.73.05-.5-.06.26-.06.3-.1.48-.25.94-.42,1.4-.47,1.27.52,2.74,1.75,3.08,1.4.38,2.6-.48,3.08-1.75,1.72-4.64.25-10.29-3.46-13.54-1.19-1.04-3.08-.96-3.93.51-3.09,5.36-3.08,12.2.06,17.54,1.09,1.85,4,1.48,4.57-.6,1.63-5.93,1.74-12.17.41-18.17-.29-1.32-1.82-2.09-3.08-1.75-1.36.37-2.04,1.75-1.75,3.08h0Z"/>
  </g>
  <g>
    <path class="cls-3" d="M73.76,290.3c-1.36.6-1.43,2.73-.36,3.77s2.78,1.11,4.2.67c2.62-.8,4.76-3.55,4.13-6.21s-4.66-3.99-6.33-1.81"/>
    <path class="cls-3" d="M72.5,288.14c-1.46.69-2.18,2.25-2.32,3.78-.13,1.37.43,2.81,1.35,3.8,2.13,2.29,5.76,2.1,8.33.76,1.23-.64,2.22-1.6,3.04-2.7s1.26-2.44,1.41-3.82c.26-2.46-1.15-4.88-3.32-6.01-1.08-.56-2.36-.93-3.59-.82-1.41.13-2.85.65-3.76,1.8-.43.54-.73,1.05-.73,1.77,0,.61.27,1.35.73,1.77s1.1.76,1.77.73c.62-.03,1.37-.22,1.77-.73.08-.1.15-.19.24-.28.08-.08.42-.35.01-.04s-.06.06.04,0,.2-.11.31-.15l-.6.25c.24-.1.49-.16.75-.2l-.66.09c.33-.04.65-.04.98,0l-.66-.09c.4.05.78.16,1.15.31l-.6-.25c.23.1.45.21.66.34.11.07.2.14.31.21-.69-.47-.35-.28-.19-.12.08.07.16.15.23.23.17.19.31.53-.1-.15.13.21.26.41.36.64l-.25-.6c.12.28.19.57.24.87l-.09-.66c.05.39.05.77,0,1.15l.09-.66c-.06.42-.17.83-.33,1.22l.25-.6c-.15.34-.32.67-.53.98-.04.07-.15.17-.17.24.01-.05.39-.47.17-.22-.13.15-.26.3-.41.44-.13.13-.26.25-.4.36-.15.13-.42.24.17-.13-.07.04-.13.09-.2.14-.33.22-.69.41-1.06.57l.6-.25c-.5.2-1.01.34-1.54.41l.66-.09c-.42.05-.83.05-1.25,0l.66.09c-.37-.05-.72-.14-1.06-.29l.6.25c-.15-.07-.29-.15-.43-.23-.3-.17.18.17.21.18-.08-.03-.16-.15-.22-.2-.33-.3.31.51.09.13-.07-.13-.14-.25-.2-.39l.25.6c-.08-.22-.14-.43-.18-.66l.09.66c-.03-.26-.03-.51,0-.77l-.09.66c.03-.19.08-.37.15-.54l-.25.6c.04-.08.07-.17.12-.25.25-.44-.28.28-.15.17.08-.07.37-.32-.01-.02s-.04.06.07,0c.54-.26,1-.94,1.15-1.49.16-.6.09-1.4-.25-1.93-.78-1.22-2.15-1.5-3.42-.9h0Z"/>
  </g>
  <g>
    <path class="cls-3" d="M84.67,276.29c-.51,2.12,1.14,4.55,3.32,4.7s4.18-2.24,3.5-4.32-3.91-2.74-5.24-1"/>
    <path class="cls-3" d="M82.26,275.62c-.49,2.2.19,4.57,1.82,6.14.78.75,1.81,1.39,2.89,1.59,1.33.25,2.54.09,3.76-.49,1.98-.93,3.37-3.13,3.39-5.32,0-1.01-.29-2.11-.9-2.93-.45-.6-.82-.97-1.43-1.42-.42-.31-.9-.51-1.39-.69-1.94-.74-4.59-.29-5.92,1.39-.43.54-.73,1.05-.73,1.77,0,.61.27,1.35.73,1.77s1.1.76,1.77.73c.62-.03,1.37-.22,1.77-.73.13-.16.26-.3.42-.43l-.51.39c.18-.13.37-.24.57-.33l-.6.25c.25-.1.51-.17.78-.21l-.66.09c.3-.03.6-.03.9.01l-.66-.09c.3.05.6.13.88.24l-.6-.25c.28.12.54.27.78.46l-.51-.39c.18.14.33.3.48.47l-.39-.51c.14.18.25.37.35.58l-.25-.6c.09.21.15.43.18.65l-.09-.66c.04.26.04.52,0,.79l.09-.66c-.04.29-.12.57-.23.85l.25-.6c-.13.3-.3.58-.5.85l.39-.51c-.21.26-.44.49-.71.7l.51-.39c-.24.18-.5.33-.77.45l.6-.25c-.28.11-.56.19-.86.23l.66-.09c-.24.03-.48.02-.72,0l.66.09c-.3-.04-.58-.12-.86-.23l.6.25c-.27-.12-.53-.27-.76-.45l.51.39c-.29-.22-.54-.48-.76-.76l.39.51c-.22-.29-.4-.6-.54-.94l.25.6c-.14-.34-.23-.68-.28-1.04l.09.66c-.03-.3-.04-.6,0-.9l-.09.66c.02-.12.04-.24.06-.36.15-.65.09-1.34-.25-1.93-.3-.52-.9-1.01-1.49-1.15-1.27-.29-2.77.38-3.08,1.75h0Z"/>
  </g>
  <g>
    <path class="cls-3" d="M109.68,292.17c-2.31.3-4.6.73-6.86,1.28-1.15.28-2.53.87-2.56,2.05-.02.62.38,1.18.85,1.58,2.28,1.94,6.5.11,6.64-2.89s-3.89-5.21-6.34-3.49"/>
    <path class="cls-3" d="M109.68,289.67c-1.74.23-3.48.5-5.2.85-1.49.3-3.08.57-4.42,1.33-1.69.97-2.82,2.99-2.11,4.93.61,1.67,2.05,2.92,3.77,3.38,2.46.66,5.4-.25,7.02-2.24.93-1.14,1.55-2.51,1.49-4.01s-.69-2.92-1.72-4.05c-2.03-2.23-5.79-3.07-8.38-1.32-1.08.73-1.66,2.24-.9,3.42.7,1.08,2.26,1.68,3.42.9.15-.1.32-.18.48-.28-.53.35-.46.18-.19.09.09-.03.17-.05.26-.07s.18-.03.26-.05c-.74.18-.51.05-.29.05.09,0,.18,0,.27,0,.11,0,.62.06.1-.01s.13.04.26.07c.25.07.84.39.08-.01.16.09.33.16.49.25.06.04.13.08.19.12.08.05.5.36.11.06-.37-.28-.07-.05,0,.02.08.07.16.15.24.23.05.05.1.11.15.16.3.32-.36-.53-.12-.16.1.15.19.31.28.46.18.31-.15-.29-.12-.3,0,0,.13.37.13.41.02.07.03.14.05.21.1.43-.03-.68-.04-.23,0,.18-.01.36-.02.55.02-.81.05-.35-.04-.05-.02.06-.05.13-.07.2.2-.74.17-.37.03-.13s-.53.6.04,0c-.12.13-.23.26-.35.38-.06.06-.14.11-.2.18-.21.21.56-.4.21-.16-.18.12-.35.24-.54.34-.08.04-.16.08-.24.12-.27.15.65-.24.25-.11-.17.06-.34.11-.51.16-.27.07-.83.04.04.02-.21,0-.42.03-.63.02-.61-.03.65.14.05.01-.17-.04-.33-.09-.5-.14-.41-.13.59.31.22.09-.06-.04-.12-.07-.18-.1-.02-.01-.27-.17-.26-.18,0,0,.63.48.13.06-.38-.31.26.49.03.05-.1-.18-.09-.3.07.22-.14-.47-.08.6,0,.11,0,0-.12.69-.04.32.1-.43-.3.56-.07.19-.39.62-.31.36-.18.24l.08-.08c.19-.16.11-.11-.23.17.1-.04.22-.14.32-.2.11-.06.23-.1.34-.17-.57.33-.34.14-.12.07.26-.09.52-.15.78-.22.71-.17,1.43-.33,2.15-.48s1.44-.28,2.17-.4c.36-.06.73-.12,1.09-.17.12-.02.24-.04.36-.05.14-.02.98-.13.25-.04.69-.09,1.25-.22,1.77-.73.43-.43.76-1.15.73-1.77s-.24-1.32-.73-1.77c-.45-.41-1.13-.82-1.77-.73h0Z"/>
  </g>
  <g>
    <path class="cls-3" d="M66.64,282.15l.06,3.66c2.05-.57,2.06-4.16,0-4.74"/>
    <path class="cls-3" d="M64.14,282.15l.06,3.66c.03,1.6,1.58,2.87,3.16,2.41.39-.12.8-.27,1.15-.51s.66-.47.92-.77c.53-.63.96-1.34,1.14-2.15.2-.89.18-1.65.03-2.53-.03-.21-.09-.41-.17-.61-.15-.38-.3-.78-.54-1.12-.4-.57-.74-.91-1.31-1.31-.36-.26-.8-.44-1.22-.56-.61-.18-1.38-.07-1.93.25-.52.3-1.01.9-1.15,1.49-.15.64-.11,1.36.25,1.93s.85.96,1.49,1.15c.08.02.15.05.23.08l-.6-.25c.14.06.27.14.4.23l-.51-.39c.14.11.27.24.38.38l-.39-.51c.12.16.22.33.3.51l-.25-.6c.1.25.17.5.21.77l-.09-.66c.03.27.03.54,0,.81l.09-.66c-.03.25-.1.49-.19.72l.25-.6c-.08.2-.19.38-.32.55l.39-.51c-.1.13-.22.25-.35.35l.51-.39c-.13.1-.28.19-.43.26l.6-.25c-.07.03-.15.06-.23.08l3.16,2.41-.06-3.66c-.01-.65-.27-1.31-.73-1.77-.43-.43-1.15-.76-1.77-.73s-1.32.24-1.77.73-.74,1.09-.73,1.77h0Z"/>
  </g>
  <g>
    <path class="cls-3" d="M81.3,301.97c-1.81,3.75-2.29,8.13-1.34,12.19,5.19-2.06,9.84-5.47,13.37-9.8.55-.67,1.1-1.51.84-2.34-.19-.63-.8-1.03-1.37-1.35-4.87-2.71-10.86-3.33-16.17-1.67"/>
    <path class="cls-3" d="M79.14,300.71c-2.09,4.44-2.67,9.31-1.59,14.11.27,1.21,1.86,2.23,3.08,1.75,5.24-2.1,10-5.3,13.73-9.56,1.12-1.27,2.32-2.65,2.38-4.44s-1.17-3.21-2.67-4.06c-2.6-1.48-5.5-2.35-8.45-2.73-3.23-.42-6.53-.14-9.65.81-1.29.39-2.11,1.75-1.75,3.08s1.78,2.14,3.08,1.75c1.39-.42,2.68-.69,3.93-.77.78-.06,1.56-.07,2.34-.04.34.01.68.04,1.02.07.15.01.29.03.44.04.32.04.39.04.21.03,1.45.21,2.88.59,4.24,1.11.57.22,1.03.43,1.67.77.27.14.57.28.82.47-.17-.14-.14-.12.07.08-.27-.28-.36-.61-.26-.99.11-.14.08-.07-.09.2-.19.25-.23.32-.13.21-.17.23-.37.45-.56.66-.5.58-1.03,1.15-1.57,1.7-.91.92-2.11,1.99-2.97,2.65-2.16,1.66-4.86,3.21-7.18,4.14l3.08,1.75c-.76-3.37-.4-7.1,1.08-10.26.58-1.22.34-2.7-.9-3.42-1.09-.64-2.84-.33-3.42.9h0Z"/>
  </g>
  <g>
    <path class="cls-3" d="M112.64,300.46c-2.97.81-2.08,6.13.97,6.51s5.51-3.26,4.74-6.24"/>
    <path class="cls-3" d="M111.97,298.04c-1.75.5-3.16,1.97-3.51,3.78-.32,1.68-.08,3.47.83,4.94,1.03,1.66,2.74,2.72,4.72,2.74,1.08.01,2.15-.3,3.09-.82s1.72-1.32,2.38-2.2c1.34-1.79,1.8-4.24,1.26-6.41-.32-1.27-1.81-2.16-3.08-1.75s-2.09,1.72-1.75,3.08c.04.16.07.33.1.49l-.09-.66c.06.45.06.89,0,1.34l.09-.66c-.07.48-.19.94-.38,1.38l.25-.6c-.2.47-.45.9-.76,1.3l.39-.51c-.27.35-.58.65-.93.92l.51-.39c-.28.21-.57.38-.89.53l.6-.25c-.32.13-.65.23-.99.27l.66-.09c-.3.04-.6.03-.9,0l.66.09c-.25-.03-.49-.1-.73-.2l.6.25c-.22-.1-.43-.22-.63-.37l.51.39c-.21-.17-.39-.36-.56-.57l.39.51c-.22-.28-.39-.59-.53-.92l.25.6c-.15-.37-.26-.76-.31-1.16l.09.66c-.04-.35-.05-.7,0-1.05l-.09.66c.04-.3.11-.58.23-.86l-.25.6c.09-.21.21-.41.35-.59l-.39.51c.12-.15.25-.28.4-.4l-.51.39c.16-.12.33-.22.51-.3l-.6.25c.1-.04.2-.07.3-.1.61-.18,1.17-.6,1.49-1.15s.45-1.33.25-1.93c-.41-1.28-1.73-2.13-3.08-1.75h0Z"/>
  </g>
  <g>
    <path class="cls-3" d="M117.61,275.09l-2.72,3.05c.85,1.72,3.14,2.56,4.9,1.79-.58-1.54-2.58-2.35-4.07-1.64"/>
    <path class="cls-3" d="M115.84,273.32l-2.72,3.05c-.37.42-.61.87-.69,1.44s.03,1.07.3,1.59c.2.4.49.76.77,1.11.16.19.33.37.52.53.73.61,1.42,1.01,2.31,1.34.23.09.48.15.72.19.44.07.89.15,1.34.15s.92-.07,1.37-.16.86-.29,1.28-.47l.51-.39c.24-.23.42-.49.52-.8.2-.47.32-1.13.13-1.63-.31-.8-.67-1.48-1.29-2.09s-1.32-.99-2.12-1.31c-.59-.23-1.25-.34-1.89-.34-.89,0-1.65.23-2.44.6-.54.25-1,.95-1.15,1.49-.16.6-.09,1.4.25,1.93s.86,1,1.49,1.15l.66.09c.45,0,.87-.12,1.26-.34.04-.02.08-.04.12-.05l-.6.25c.21-.09.43-.14.66-.18l-.66.09c.27-.03.54-.03.81,0l-.66-.09c.29.04.57.12.85.23l-.6-.25c.25.11.48.25.7.41l-.51-.39c.2.15.37.33.53.52l-.39-.51c.14.18.26.38.35.59l-.25-.6s.03.08.05.12l1.15-2.82-.06.03.6-.25c-.28.11-.57.19-.88.23l.66-.09c-.32.04-.65.04-.97,0l.66.09c-.37-.05-.72-.15-1.07-.29l.6.25c-.32-.14-.62-.31-.9-.52l.51.39c-.26-.2-.48-.43-.68-.69l.39.51c-.13-.17-.24-.36-.34-.55l-.39,3.03,2.72-3.05c.44-.5.73-1.09.73-1.77,0-.61-.27-1.35-.73-1.77s-1.1-.76-1.77-.73-1.33.24-1.77.73h0Z"/>
  </g>
  <g>
    <path class="cls-3" d="M84.79,304.22c-.36.74.04,1.75.81,2.05,2.94-2.7,5.36-5.98,7.08-9.58.77-1.61,1.32-3.75.04-5-1.31-1.29-3.53-.61-5.09.36-3.99,2.48-7.03,6.45-8.38,10.96"/>
    <path class="cls-3" d="M82.38,303.55c-.7,1.75.26,4.09,1.96,4.87,1.06.49,2.15.42,3.03-.39,2.2-2.04,4.13-4.38,5.73-6.92s3.26-5.46,2.78-8.54c-.24-1.53-1.29-2.93-2.69-3.58-1.51-.7-3.24-.65-4.78-.07-2.64.99-4.99,2.91-6.84,5.01-2.15,2.44-3.75,5.28-4.71,8.4-.38,1.25.45,2.78,1.75,3.08s2.67-.41,3.08-1.75c.16-.51.33-1.01.52-1.5.03-.08.19-.44,0-.03.05-.1.09-.21.14-.31.13-.28.26-.55.4-.82.5-.98,1.09-1.91,1.74-2.79-.27.36.16-.2.24-.3.17-.2.34-.41.52-.6.38-.42.78-.83,1.19-1.22.19-.18.39-.36.59-.53.11-.1.23-.19.35-.29.02-.01.31-.25.1-.09s.09-.07.11-.08c.12-.09.24-.18.37-.27.25-.18.5-.34.75-.51.21-.13.42-.26.64-.38.14-.08.72-.33.27-.15.23-.09.47-.17.71-.23.1-.03.2-.05.31-.07.57-.14-.26-.03.04,0,.13.01.27,0,.39,0,.28,0-.16-.01-.19-.02.16.05.35.17-.06-.07.08.05.17.09.25.14.23.16-.1-.07-.12-.08.35.18.03.14-.02-.04.05.18.05.33-.01-.07.02.12.07.25.09.38-.03-.12-.01-.51-.03-.07,0,.1-.02.21,0,.31.02.27.02-.1.03-.15-.03.14-.05.28-.08.42-.06.24-.13.49-.21.72-.03.1-.07.2-.11.3-.23.62.14-.23-.04.08-.59,1.05-1.09,2.13-1.72,3.16-.35.57-.72,1.12-1.11,1.66-.19.27-.39.54-.59.8.22-.29-.04.04-.07.08-.11.13-.21.26-.32.39-.9,1.09-1.88,2.11-2.92,3.08l3.03-.39c-.28-.13-.05,0,.06.11l.16.24c-.11-.2-.12-.2-.03-.02.01.06.1.59.09.37,0-.28-.15.56.04.07.49-1.22-.53-2.8-1.75-3.08-1.45-.33-2.55.44-3.08,1.75h0Z"/>
  </g>
  <g>
    <path class="cls-3" d="M129.8,292.02c1.8,1.59,4.8,1.59,6.6,0-2.31-2.02-5.75-2.67-8.64-1.64"/>
    <path class="cls-3" d="M128.03,293.78c1.43,1.23,3.17,1.93,5.07,1.93s3.64-.7,5.07-1.93c.97-.83.97-2.7,0-3.54-3-2.58-7.28-3.61-11.08-2.28-1.23.43-2.18,1.73-1.75,3.08.39,1.22,1.75,2.21,3.08,1.75.54-.19,1.09-.32,1.66-.41l-.66.09c.79-.1,1.57-.1,2.36,0l-.66-.09c.39.05.78.13,1.16.23.21.06.42.12.63.19.08.03.17.06.25.09.09.04.48.19.07.02-.39-.16-.08-.03,0,0,.1.05.2.1.29.15.17.09.35.19.51.29s.33.22.49.33c.29.2-.15-.15-.19-.15.07,0,.25.21.3.25v-3.54c-.35.3.52-.34.12-.09-.09.05-.17.11-.25.17s-.17.1-.26.15c-.21.11-.5.14.16-.05-.44.13-.84.27-1.29.33l.66-.09c-.45.05-.89.05-1.34,0l.66.09c-.22-.03-.44-.07-.66-.13-.19-.05-.45-.2-.63-.21.11,0,.59.27.21.08-.09-.05-.18-.09-.27-.15-.1-.06-.2-.13-.31-.2-.36-.24.47.39.12.09-.51-.44-1.08-.73-1.77-.73-.61,0-1.35.27-1.77.73-.86.94-1.06,2.63,0,3.54h0Z"/>
  </g>
  <g>
    <path class="cls-3" d="M146.89,277.19c-.41,2.13-3.42,3.19-5.08,1.79"/>
    <path class="cls-3" d="M144.48,276.53c-.04.17-.09.34-.15.5l.25-.6c-.09.21-.21.41-.35.6l.39-.51c-.17.21-.36.4-.57.57l.51-.39c-.25.19-.52.35-.81.47l.6-.25c-.29.12-.59.2-.91.25l.66-.09c-.29.04-.58.04-.87,0l.66.09c-.27-.04-.53-.1-.78-.21l.6.25c-.2-.09-.38-.19-.55-.32l.51.39s-.06-.05-.09-.07c-.53-.43-1.06-.73-1.77-.73-.61,0-1.35.27-1.77.73s-.76,1.1-.73,1.77c.03.63.23,1.35.73,1.77.74.61,1.56,1.11,2.52,1.25s1.96.15,2.92-.18,1.75-.78,2.43-1.48,1.2-1.56,1.39-2.49c.14-.66.1-1.33-.25-1.93-.3-.52-.9-1.01-1.49-1.15-.64-.15-1.36-.11-1.93.25-.53.34-1.02.86-1.15,1.49h0Z"/>
  </g>
  <g>
    <path class="cls-3" d="M135.71,301.03c2.32.66,4.92.3,6.97-.97-2.27-.86-4.73-1.23-7.15-1.08-.9.06-1.89.23-2.45.94s-.22,2.05.68,2.07"/>
    <path class="cls-3" d="M135.04,303.45c2.98.82,6.25.38,8.9-1.22.86-.52,1.33-1.5,1.19-2.49s-.83-1.72-1.79-2.08c-1.56-.58-3.15-.9-4.8-1.09-1.52-.17-3.13-.19-4.64.13-1.92.42-3.47,1.9-3.59,3.91-.05.77.16,1.59.56,2.25.65,1.05,1.68,1.56,2.88,1.65,1.31.1,2.56-1.22,2.5-2.5-.06-1.44-1.1-2.39-2.5-2.5l.47.06c.43.21.55.26.38.16-.1-.06-.06-.03.14.11.14.07.24.18.32.31.15.21.18.24.08.09l.17.42s-.05-.18-.06-.2c.28.54.01.58.05.3.03-.26-.17.71-.04.3.09-.31-.13.29-.14.31.15-.33-.38.37-.15.18.03-.03.06-.06.1-.09.14-.13.06-.06-.24.19.06-.02.19-.09.23-.13-.11.1-.57.21-.16.08.09-.03.18-.05.26-.07.1-.02.23-.07.34-.07-.06,0-.61.06-.25.04.27-.02.54-.04.8-.05.53-.02,1.07,0,1.6.03.27.02.53.04.8.07.2.02.5.16-.05-.01.11.03.24.04.35.05,1.11.19,2.2.48,3.26.88l-.6-4.57c-.25.15-.5.29-.76.42-.35.17-.12.03.09-.03-.15.04-.3.12-.44.17-.25.09-.5.16-.75.22-.15.04-.31.07-.46.1-.09.02-.56.08-.13.03s-.08,0-.14,0c-.13.01-.26.02-.39.02-.29.01-.58.01-.87,0-.13,0-.26-.02-.39-.03-.32-.02.57.1.12.02-.31-.06-.62-.12-.92-.21-1.26-.34-2.78.43-3.08,1.75s.4,2.71,1.75,3.08h0Z"/>
  </g>
  <g>
    <path class="cls-3" d="M116.73,287.05c1.24.51,2.8.1,3.64-.96-2.06-.98-4.43-1.3-6.68-.9"/>
    <path class="cls-3" d="M116.06,289.46c2.01.79,4.7.07,6.07-1.6.52-.64.8-1.26.69-2.1-.1-.72-.5-1.5-1.19-1.83-1.36-.64-2.71-1.06-4.2-1.26s-2.92-.14-4.41.12c-.58.1-1.21.66-1.49,1.15-.31.54-.45,1.33-.25,1.93s.57,1.19,1.15,1.49c.63.33,1.23.37,1.93.25.16-.03.31-.05.47-.07l-.66.09c.98-.13,1.96-.12,2.94,0l-.66-.09c.98.14,1.93.39,2.84.77l-.6-.25c.14.06.29.13.43.19l-.51-3.93c-.16.19-.34.37-.53.52l.51-.39c-.2.15-.42.27-.64.38l.6-.25c-.29.12-.59.2-.9.25l.66-.09c-.28.03-.56.03-.84,0l.66.09c-.25-.04-.49-.1-.72-.19-.57-.22-1.42-.04-1.93.25s-1.01.9-1.15,1.49c-.15.64-.11,1.36.25,1.93s.86.9,1.49,1.15h0Z"/>
  </g>
  <g>
    <path class="cls-3" d="M101.92,274.79c-.68.28.7,1.1.89.39s-.66-1.25-1.38-1.39c-2.09-.38-4.52.89-4.88,2.97s2.17,4.22,3.98,3.13"/>
    <path class="cls-3" d="M100.66,272.63c-.41.2-.81.61-1.04,1-.32.52-.41,1.12-.33,1.72.12.91.63,1.61,1.4,2.11,1.39.91,3.37.56,4.24-.89.44-.73.55-1.76.26-2.56-.32-.88-.87-1.53-1.65-2.04-.9-.58-2.1-.8-3.16-.73-2.19.15-4.16,1.16-5.43,2.98s-1.22,4.23.03,5.94c.79,1.08,1.76,1.86,3.03,2.3s2.67.24,3.8-.41c.54-.31.98-.89,1.15-1.49s.09-1.4-.25-1.93c-.74-1.14-2.21-1.6-3.42-.9-.09.05-.18.1-.28.14l.6-.25c-.16.06-.33.11-.5.14l.66-.09c-.2.02-.39.02-.59,0l.66.09c-.22-.03-.44-.09-.65-.17l.6.25c-.26-.11-.5-.25-.73-.42l.51.39c-.23-.18-.43-.38-.61-.61l.39.51c-.18-.23-.32-.48-.44-.74l.25.6c-.09-.22-.15-.44-.19-.67l.09.66c-.03-.23-.03-.47,0-.7l-.09.66c.04-.27.12-.53.22-.78l-.25.6c.11-.24.24-.47.4-.69l-.39.51c.22-.28.46-.52.74-.74l-.51.39c.29-.21.6-.39.92-.54l-.6.25c.41-.17.84-.29,1.28-.35l-.66.09c.39-.05.77-.05,1.16,0l-.66-.09c.22.03.44.09.65.17l-.6-.25c.16.07.3.15.44.25l-.51-.39c.11.08.2.17.29.28l-.39-.51c.04.06.08.12.12.19l-.25-.6c.03.07.05.14.06.21l-.09-.66c0,.08,0,.15,0,.23l.09-.66s-.02.09-.03.13l.25-.6s-.03.06-.05.09l.39-.51s-.04.05-.06.06l.51-.39s-.05.03-.07.04l.6-.25s-.08.03-.13.03l.66-.09s-.09,0-.14,0l.66.09c-.08-.01-.16-.04-.24-.07l.6.25c-.07-.04-.14-.08-.21-.12l.51.39s-.06-.06-.09-.09l.39.51s-.04-.06-.06-.1l.25.6s-.01-.04-.02-.06l.09.66v-.03c-.03.22-.06.44-.09.66,0-.02,0-.04.02-.06l-.25.6.02-.03-.39.51s.04-.04.06-.05l-.51.39s.06-.03.09-.05c.54-.25,1-.94,1.15-1.49.16-.6.09-1.4-.25-1.93s-.86-1-1.49-1.15c-.69-.16-1.29-.05-1.93.25h0Z"/>
  </g>
  <g>
    <path class="cls-3" d="M153.73,294.01c1.69.68,3.85-.18,4.6-1.85-1.21-.99-2.93-1.32-4.42-.84,1.35,1.19,3.63-.81,3.12-2.55s-2.55-2.56-4.35-2.51"/>
    <path class="cls-3" d="M153.06,296.42c2.69,1.03,6.2-.4,7.42-2.99.25-.52.38-1.01.3-1.59-.07-.5-.28-1.11-.69-1.44-.95-.76-1.99-1.38-3.21-1.62s-2.45-.24-3.65.13c-.84.26-1.51.89-1.75,1.75-.22.8-.02,1.88.64,2.43.79.66,1.69,1.12,2.76,1.09.83-.02,1.67-.27,2.35-.74,1.37-.94,2.41-2.5,2.35-4.22-.12-3.53-3.74-5.5-6.92-5.46-1.31.02-2.56,1.14-2.5,2.5s1.1,2.52,2.5,2.5c.32,0,.63.01.95.06l-.66-.09c.46.07.9.18,1.34.36l-.6-.25c.35.15.68.33.99.56l-.51-.39c.21.17.4.35.57.56l-.39-.51c.17.21.3.44.41.69l-.25-.6c.07.18.13.36.16.56l-.09-.66c.02.18.02.35,0,.53l.09-.66c-.03.18-.08.35-.14.52l.25-.6c-.1.23-.22.43-.36.63l.39-.51c-.15.19-.32.36-.51.51l.51-.39c-.17.12-.34.22-.53.31l.6-.25c-.16.06-.31.11-.48.13l.66-.09c-.14.01-.27.02-.4,0l.66.09c-.14-.02-.26-.06-.39-.11l.6.25c-.1-.05-.2-.11-.29-.18l.51.39-.07-.06-1.1,4.18c.27-.08.54-.14.82-.18l-.66.09c.4-.04.8-.04,1.2,0l-.66-.09c.44.06.86.17,1.27.34l-.6-.25c.37.16.71.36,1.04.6l-.51-.39.09.08-.39-3.03c-.1.22-.22.42-.37.62l.39-.51c-.19.24-.4.46-.65.65l.51-.39c-.28.21-.57.38-.89.52l.6-.25c-.32.13-.65.22-.99.27l.66-.09c-.31.04-.61.04-.92,0l.66.09c-.27-.04-.53-.11-.79-.21-.57-.22-1.42-.04-1.93.25s-1.01.9-1.15,1.49c-.15.64-.11,1.36.25,1.93s.85.9,1.49,1.15h0Z"/>
  </g>
  <g>
    <path class="cls-3" d="M128.86,277.45c2.22-.66,4.62-1.45,5.9-3.38s.42-5.28-1.9-5.42c-3.31-.21-3.45,4.81-5.07,7.7.65-.35,1.3-.7,1.96-1.06"/>
    <path class="cls-3" d="M129.52,279.86c2.27-.68,4.65-1.49,6.35-3.23s2.43-4.26,1.69-6.61c-.4-1.28-1.13-2.33-2.24-3.1s-2.42-.88-3.68-.67c-1.95.33-3.31,1.95-4.06,3.68-.43,1-.78,2.03-1.12,3.07-.15.44-.29.87-.46,1.31-.04.1-.08.19-.11.29-.15.39.3-.67.05-.13-.1.21-.2.41-.31.62-.52.94-.43,2.27.39,3.03s2.02.94,3.03.39c.65-.35,1.3-.7,1.96-1.06,1.15-.62,1.61-2.31.9-3.42-.75-1.17-2.19-1.56-3.42-.9-.65.35-1.3.7-1.96,1.06l3.42,3.42c.88-1.6,1.32-3.38,1.95-5.09.07-.18.17-.38.22-.57-.02.06-.29.64-.12.28.04-.09.08-.17.12-.26.16-.32.36-.59.53-.9-.38.67-.34.41-.18.24.06-.06.11-.12.17-.18.06-.05.13-.1.18-.16-.44.5-.48.33-.25.2.07-.04.14-.08.21-.12.3-.18-.66.22-.3.13.16-.04.32-.09.49-.11l-.66.09c.25-.03.49-.03.74,0l-.66-.09c.14.02.28.09.41.1.19.02-.51-.25-.34-.15.06.04.13.07.2.11.44.27-.4-.39-.11-.09.19.2.35.54-.06-.13.07.11.14.21.2.32.04.07.07.15.11.21.14.19-.21-.56-.14-.33.09.3.19.59.23.91l-.09-.66c.05.4.05.81,0,1.21l.09-.66c-.04.27-.11.52-.19.78-.09.3.12-.31.14-.32-.03.02-.07.15-.09.18-.07.13-.15.24-.23.36-.21.31.15-.2.16-.2,0,0-.15.18-.17.2-.11.13-.23.25-.36.36-.06.06-.13.11-.19.17-.27.25.2-.16.21-.15.01.02-.45.32-.48.33-.29.19-.6.35-.91.51-.11.05-.65.29-.24.12s-.15.06-.26.1c-.68.26-1.38.48-2.09.69-1.25.37-2.17,1.77-1.75,3.08s1.73,2.15,3.08,1.75h0Z"/>
  </g>
  <g>
    <path class="cls-3" d="M169.97,285.36c-1.39,2,1.08,4.91,3.5,4.62s4.13-2.56,4.91-4.87c-2.38-1.12-5.12-1.43-7.68-.87"/>
    <path class="cls-3" d="M167.81,284.1c-1.76,2.67-.15,6.18,2.42,7.61,1.38.77,2.96.98,4.49.57,1.38-.36,2.67-1.2,3.63-2.25,1.13-1.24,1.9-2.68,2.44-4.25.33-.96-.2-2.38-1.15-2.82-3.04-1.41-6.32-1.82-9.61-1.13-1.28.27-2.14,1.85-1.75,3.08.44,1.35,1.7,2.03,3.08,1.75.29-.06.58-.11.88-.16l-.66.09c1.08-.14,2.17-.14,3.26,0l-.66-.09c1.08.15,2.13.43,3.14.85l-.6-.25c.14.06.27.12.41.18l-1.15-2.82c-.08.23-.17.46-.26.69l.25-.6c-.17.4-.36.79-.59,1.17-.11.18-.22.35-.34.52-.06.08-.13.16-.18.25.4-.62.21-.28.08-.12-.27.31-.57.56-.87.84.6-.56.09-.09-.13.04-.19.11-.38.2-.58.29l.6-.25c-.33.13-.67.23-1.03.28l.66-.09c-.29.04-.57.04-.85,0l.66.09c-.32-.05-.61-.13-.91-.26l.6.25c-.21-.1-.4-.21-.6-.33-.44-.26.43.39.12.1-.08-.07-.16-.14-.23-.22s-.14-.15-.22-.23c-.29-.31.35.51.14.18-.13-.2-.25-.4-.34-.62l.25.6c-.1-.25-.17-.49-.21-.75l.09.66c-.02-.19-.02-.38,0-.57l-.09.66c.03-.19.07-.38.14-.56l-.25.6c.07-.16.15-.3.24-.45.72-1.09.25-2.81-.9-3.42-1.25-.66-2.65-.27-3.42.9h0Z"/>
  </g>
  <g>
    <path class="cls-3" d="M162.57,300.17c.97,1.7,1.77,3.79.94,5.57s-4,2.13-4.52.24"/>
    <path class="cls-3" d="M160.41,301.43c.26.46.51.94.71,1.43l-.25-.6c.25.61.45,1.24.54,1.9l-.09-.66c.04.38.05.76,0,1.14l.09-.66c-.05.35-.14.68-.27,1.01l.25-.6c-.08.18-.17.35-.29.5l.39-.51c-.14.18-.3.33-.48.47l.51-.39c-.2.15-.41.27-.64.37l.6-.25c-.27.11-.54.19-.83.23l.66-.09c-.26.03-.51.04-.77,0l.66.09c-.21-.03-.4-.08-.6-.16l.6.25c-.13-.06-.26-.13-.37-.22l.51.39c-.11-.09-.22-.19-.31-.3l.39.51c-.08-.11-.14-.22-.2-.34l.25.6c-.03-.07-.06-.15-.08-.22-.18-.61-.6-1.17-1.15-1.49s-1.33-.45-1.93-.25c-1.27.41-2.14,1.73-1.75,3.08s1.44,2.39,2.8,2.87c.96.34,2.17.3,3.13,0,1.24-.39,2.23-1.12,2.97-2.19.34-.5.58-1.14.7-1.73.19-.97.17-1.79.04-2.75-.2-1.39-.81-2.72-1.5-3.93-.31-.54-.9-.98-1.49-1.15s-1.4-.09-1.93.25c-1.15.74-1.59,2.2-.9,3.42h0Z"/>
  </g>
  <g>
    <path class="cls-3" d="M182.75,295.18c-.43,1.38-.02,2.98,1.02,3.99,4.7-3.81,8.6-8.59,11.38-13.96.19-.36.37-.78.23-1.16-.32-.82-1.54-.47-2.27.02-4.1,2.73-8.58,6.02-9.33,10.89"/>
    <path class="cls-3" d="M180.33,294.51c-.64,2.29,0,4.72,1.66,6.42,1.01,1.04,2.5.84,3.54,0,4.52-3.68,8.34-8.25,11.17-13.34.95-1.7,1.98-3.86.32-5.53-1.34-1.34-3.3-1.17-4.86-.35-1.07.56-2.07,1.36-3.03,2.07-1.12.83-2.23,1.7-3.23,2.66-2.19,2.11-4.02,4.78-4.53,7.83-.21,1.29.34,2.75,1.75,3.08,1.21.27,2.85-.37,3.08-1.75.08-.51.2-1.01.36-1.5.07-.21.14-.41.22-.61-.19.47.13-.24.2-.38.22-.42.47-.82.74-1.2.08-.12.49-.62.2-.28.19-.23.38-.46.58-.68.71-.79,1.49-1.5,2.31-2.18.18-.15.36-.29.54-.43-.35.28.22-.16.32-.24.43-.32.87-.63,1.31-.94s.87-.6,1.31-.89c.07-.05.56-.36.28-.2-.3.18.05-.07.15-.04.28.09-.42,0-.14.01h.08c-.9-.03-1.39-.44-1.46-1.24.17.52-.41-.73-.2-.87-.16.11-.33.62-.42.79-.28.52-.58,1.04-.89,1.55-.61,1.02-1.27,2.02-1.96,2.99-.73,1.02-1.1,1.49-1.97,2.51-1.74,2.04-3.67,3.91-5.76,5.61h3.54c-.19-.22-.21-.22-.05-.01-.09-.12-.17-.25-.24-.39-.13-.26-.14-.27-.02-.03-.04-.11-.07-.22-.1-.33-.03-.11-.05-.22-.07-.33.04.29.05.28.03-.02.02-.3,0-.3-.03-.01.03-.15.06-.3.11-.44.35-1.26-.43-2.78-1.75-3.08s-2.7.4-3.08,1.75h0Z"/>
  </g>
  <g>
    <path class="cls-3" d="M161.76,275.18c1.86.15,1.53-3.34-.31-3.63s-3.4,1.27-4.61,2.7"/>
    <path class="cls-3" d="M161.76,277.68c.66.04,1.42-.16,1.98-.51.26-.17.52-.36.73-.6.43-.5.56-.77.8-1.37.05-.12.09-.25.11-.38.07-.35.13-.72.12-1.09,0-.5-.07-1.03-.24-1.5-.38-1.12-1.1-2.23-2.21-2.74-.74-.34-1.52-.53-2.34-.46-.93.08-1.73.31-2.56.76-1.21.64-2.21,1.66-3.09,2.69-.44.51-.73,1.07-.73,1.77,0,.61.27,1.35.73,1.77s1.1.76,1.77.73,1.34-.23,1.77-.73c.54-.63,1.11-1.25,1.76-1.76l-.51.39c.36-.28.74-.52,1.15-.7l-.6.25c.29-.12.59-.21.9-.25l-.66.09c.24-.03.48-.03.73,0l-.66-.09c.15.02.28.05.42.11l-.6-.25c.13.06.26.13.37.22l-.51-.39c.11.09.22.2.31.31l-.39-.51c.13.17.23.35.32.54l-.25-.6c.09.22.16.46.19.7l-.09-.66c.03.22.03.43,0,.65l.09-.66c-.02.16-.06.31-.13.46l.25-.6c-.04.09-.09.18-.15.26l.39-.51c-.06.08-.13.14-.2.2l.51-.39c-.06.04-.12.08-.19.11l.6-.25c-.1.04-.19.07-.3.08l.66-.09c-.09,0-.17,0-.26,0-.61-.04-1.34.31-1.77.73s-.76,1.15-.73,1.77.24,1.32.73,1.77,1.08.69,1.77.73h0Z"/>
  </g>
  <g>
    <path class="cls-1" d="M36.68,300.24c-3.25.23-6.46,1.17-9.32,2.73.78,2.04,3.63,2.67,5.56,1.63s2.97-3.22,3.36-5.37c-2.2-1.61-5.4-1.69-7.68-.2"/>
    <path class="cls-3" d="M36.68,297.74c-3.72.28-7.3,1.29-10.58,3.07-.88.48-1.55,1.84-1.15,2.82.34.85.73,1.61,1.42,2.24s1.41,1.03,2.29,1.36c1.31.49,2.96.49,4.28.05,3.21-1.06,5.14-4.2,5.74-7.39.22-1.19-.18-2.13-1.15-2.82-2.93-2.09-7.19-2.12-10.21-.2-1.1.7-1.65,2.26-.9,3.42.71,1.1,2.24,1.65,3.42.9.27-.17.61-.29.86-.47-.38.16-.45.19-.21.09l.13-.05c.18-.06.36-.12.54-.16.14-.04.27-.07.41-.09.09-.02.18-.03.28-.05l-.39.05c.29-.09.68-.05.98-.04.14,0,.28.01.42.02.49.03-.64-.11-.04,0,.3.05.6.12.89.22.16.05.31.11.46.16.18.07.09.03-.27-.11.09.04.17.08.25.12.29.15.57.32.84.52l-1.15-2.82c-.1.55-.24,1.1-.43,1.63-.05.13-.12.26-.15.4l.14-.34c-.04.09-.08.17-.12.26-.11.23-.23.46-.37.68-.07.12-.15.24-.23.35-.31.45.22-.25.06-.07s-.33.38-.51.55c-.09.09-.23.17-.31.27.31-.23.39-.29.23-.18-.06.04-.11.08-.17.12-.12.08-.24.15-.36.21-.22.12-.46.12.18-.06-.22.06-.44.15-.66.2-.11.02-.48.08-.01.01s.04-.01-.07,0c-.21,0-.43,0-.64-.02-.45-.03.62.12.21.02-.11-.03-.22-.05-.34-.08s-.22-.07-.33-.11c-.41-.13.55.29.18.07-.1-.06-.2-.11-.29-.16-.23-.14-.27-.32.15.13-.07-.08-.17-.14-.24-.22-.17-.17-.23-.43.11.17-.12-.21-.45-.91-.12-.09l-1.15,2.82c.34-.18.68-.36,1.03-.53.2-.1.4-.19.6-.28.1-.05.2-.09.3-.13l-.29.12c.08-.11.48-.19.62-.24.16-.06.31-.12.47-.17.39-.14.79-.27,1.18-.38.74-.22,1.5-.4,2.26-.54.19-.04.38-.07.57-.1.11-.02.22-.03.33-.05-.36.05-.45.06-.25.03.41-.05.82-.09,1.24-.12,1.3-.1,2.56-1.08,2.5-2.5-.06-1.27-1.1-2.6-2.5-2.5h0Z"/>
  </g>
  <g>
    <path class="cls-3" d="M207.56,296.08l-1.63,2.73c3.8-.36,7.51-1.66,10.71-3.75-2.81-1.36-6.21-1.47-9.11-.29"/>
    <path class="cls-3" d="M205.4,294.82l-1.63,2.73c-.9,1.51.23,3.95,2.16,3.76,4.26-.42,8.36-1.76,11.97-4.09.75-.48,1.24-1.25,1.24-2.16,0-.82-.46-1.79-1.24-2.16-3.43-1.63-7.46-1.97-11.03-.55-.63.25-1.14.55-1.49,1.15-.31.54-.45,1.33-.25,1.93.38,1.17,1.77,2.26,3.08,1.75.67-.27,1.36-.48,2.07-.61.12-.02.24-.04.36-.06l-.31.04c.17-.05.37-.04.54-.05.39-.03.78-.04,1.17-.03.18,0,.36.01.54.03.08,0,.71.03.3.02s.2.03.29.05c.18.03.35.07.53.11.35.08.7.18,1.04.3.17.06.34.13.51.19.17.07.11.04-.18-.08.11.05.22.1.33.15v-4.32c-.79.51-1.6.98-2.45,1.39-.22.11-.45.22-.68.32-.13.06-.66.3-.09.05-.43.19-.87.35-1.32.5-.86.3-1.73.55-2.62.75-.43.1-.86.18-1.29.25-.14.02-.97.19-.26.05-.24.05-.5.06-.75.08l2.16,3.76,1.63-2.73c.67-1.12.29-2.79-.9-3.42s-2.7-.3-3.42.9h0Z"/>
  </g>
  <g>
    <path class="cls-3" d="M207.65,277.29c.07,1.41,2.04,2.27,3.12,1.38-1.47-1.63-4.01-2.19-6.04-1.34"/>
    <path class="cls-3" d="M205.15,277.29c.07.92.33,1.7.89,2.44.41.54.94,1.01,1.56,1.29.71.32,1.46.57,2.25.51.39-.03.81-.07,1.18-.21.63-.24.98-.47,1.51-.88.45-.35.76-1.22.73-1.77-.03-.68-.27-1.26-.73-1.77-1.01-1.1-2.45-1.92-3.91-2.24s-3.13-.32-4.55.26c-.63.26-1.14.54-1.49,1.15-.31.54-.45,1.33-.25,1.93s.57,1.19,1.15,1.49,1.32.5,1.93.25c.41-.17.83-.28,1.26-.34l-.66.09c.5-.06.99-.06,1.49,0l-.66-.09c.49.07.97.2,1.44.39l-.6-.25c.43.19.83.42,1.21.7l-.51-.39c.23.18.44.38.64.59v-3.54l-.05.04.51-.39c-.11.08-.22.14-.35.2l.6-.25c-.13.05-.25.08-.38.1l.66-.09c-.18.02-.35.02-.53,0l.66.09c-.2-.03-.4-.08-.59-.16l.6.25c-.19-.08-.36-.19-.53-.31l.51.39c-.12-.1-.23-.21-.33-.33l.39.51c-.09-.13-.17-.25-.24-.4l.25.6c-.05-.13-.08-.25-.11-.39l.09.66s-.01-.09-.01-.14c-.05-.67-.25-1.28-.73-1.77-.43-.43-1.15-.76-1.77-.73s-1.32.24-1.77.73-.78,1.11-.73,1.77h0Z"/>
  </g>
  <g>
    <path class="cls-3" d="M180.69,272.1c2.11.4,4.36.09,6.28-.89-.81-2.55-5.24-2.54-6.05,0"/>
    <path class="cls-3" d="M180.02,274.51c.75.14,1.53.24,2.29.26s1.46-.07,2.19-.18c1.31-.19,2.54-.63,3.72-1.22.48-.24.82-.72,1.02-1.2.21-.49.3-1.1.13-1.63-.59-1.79-2.06-3.15-3.92-3.56-.97-.21-1.84-.2-2.82-.04-.71.12-1.44.41-2.03.82-1.01.71-1.71,1.6-2.1,2.79-.41,1.24.48,2.79,1.75,3.08,1.38.31,2.64-.42,3.08-1.75.03-.08.06-.16.09-.24l-.25.6c.09-.19.19-.36.32-.53l-.39.51c.14-.17.3-.33.47-.47l-.51.39c.21-.16.45-.29.69-.39l-.6.25c.29-.12.6-.2.91-.24l-.66.09c.36-.05.72-.05,1.08,0l-.66-.09c.31.05.62.12.91.24l-.6-.25c.25.1.48.23.69.39l-.51-.39c.18.14.33.29.47.47l-.39-.51c.13.17.23.34.32.53l-.25-.6c.03.08.06.16.09.24l1.15-2.82c-.2.1-.39.19-.6.28l.6-.25c-.81.34-1.66.57-2.52.69l.66-.09c-.87.11-1.75.12-2.62,0l.66.09c-.18-.02-.36-.05-.54-.09-.67-.12-1.32-.1-1.93.25-.52.3-1.01.9-1.15,1.49-.15.64-.11,1.36.25,1.93.34.52.86,1.03,1.49,1.15h0Z"/>
  </g>
  <path class="cls-3" d="M224.67,282.65c3.22,0,3.22-5,0-5s-3.22,5,0,5h0Z"/>
</svg>