<?xml version="1.0" encoding="UTF-8"?>
<svg id="Layer_1" data-name="Layer 1" xmlns="http://www.w3.org/2000/svg" viewBox="0 0 329.9 414.21">
  <defs>
    <style>
      .cls-1 {
        stroke: #666;
        stroke-miterlimit: 10;
        stroke-width: 5px;
      }

      .cls-1, .cls-2 {
        fill: rgba(137,137,137,0.1);
      }
     .cls-2 {
        fill: #666;
      }

      .cls-2 {
        stroke-width: 0px;
      }
    </style>
  </defs>
  <path class="cls-1" d="M27.36,327.44l-20.68,63.57,60.51-33.7L327.61,46.33l.06-.56c2.92-27.72-22.96-49.7-49.85-42.34h0S27.36,327.44,27.36,327.44Z"/>
  <path class="cls-2" d="M3.74,403.05c9.94-4.85,20.92-7.56,31.98-7.9,2.71-.08,5.51-.13,8.21.19,2.31.27,3.83,1.33,5.14,3.21,1.4,2.01,2.62,4.1,4.27,5.93,1.5,1.67,3.26,3.12,5.13,4.36,7.69,5.1,17.57,6.29,26.52,4.74,10.99-1.91,20.85-7.77,30.08-13.74,10.29-6.67,20.56-13.96,32.67-16.87,3.13-.75,1.8-5.57-1.33-4.82-10.9,2.62-20.5,8.64-29.78,14.71s-18.47,12.28-29.18,15.08c-8.57,2.24-18.21,1.77-25.87-3.02-1.75-1.1-3.32-2.42-4.71-3.95-1.53-1.69-2.58-3.72-3.93-5.54-1.66-2.24-3.7-3.99-6.46-4.67s-5.57-.62-8.29-.62c-12.8,0-25.48,3.01-36.97,8.62-1.21.59-1.54,2.32-.9,3.42.72,1.24,2.2,1.49,3.42.9h0Z"/>
</svg>